<svg width="29" height="26" viewBox="0 0 29 26" fill="none" xmlns="http://www.w3.org/2000/svg">
<path d="M11.7817 21.0577C10.4191 21.0577 9.31052 22.1663 9.31052 23.5289C9.31052 24.8915 10.4191 26 11.7817 26C13.1442 26 14.2528 24.8915 14.2528 23.5289C14.2527 22.1663 13.1442 21.0577 11.7817 21.0577ZM11.7817 24.6201C11.1798 24.6201 10.6903 24.1305 10.6903 23.5288C10.6903 22.927 11.1799 22.4374 11.7817 22.4374C12.3834 22.4374 12.873 22.927 12.873 23.5288C12.873 24.1306 12.3834 24.6201 11.7817 24.6201Z" fill="white"/>
<path d="M20.4495 21.0577C19.0869 21.0577 17.9784 22.1663 17.9784 23.5289C17.9784 24.8915 19.0869 26 20.4495 26C21.8121 26 22.9206 24.8915 22.9206 23.5289C22.9206 22.1663 21.812 21.0577 20.4495 21.0577ZM20.4495 24.6201C19.8477 24.6201 19.3581 24.1305 19.3581 23.5288C19.3581 22.927 19.8478 22.4374 20.4495 22.4374C21.0513 22.4374 21.5409 22.927 21.5409 23.5288C21.5409 24.1306 21.0512 24.6201 20.4495 24.6201Z" fill="white"/>
<path d="M21.0579 8.04736H11.1715C10.7905 8.04736 10.4817 8.35622 10.4817 8.73724C10.4817 9.11827 10.7906 9.42712 11.1715 9.42712H21.0579C21.4389 9.42712 21.7478 9.11827 21.7478 8.73724C21.7478 8.35617 21.4389 8.04736 21.0579 8.04736Z" fill="white"/>
<path d="M20.5198 11.63H11.7097C11.3286 11.63 11.0198 11.9389 11.0198 12.3199C11.0198 12.7009 11.3286 13.0098 11.7097 13.0098H20.5197C20.9007 13.0098 21.2096 12.7009 21.2096 12.3199C21.2096 11.9389 20.9007 11.63 20.5198 11.63Z" fill="white"/>
<path d="M27.7874 4.97366C27.5243 4.65075 27.1344 4.46559 26.7178 4.46559H5.22876L4.79478 2.35885C4.70417 1.91938 4.40443 1.55038 3.99278 1.37164L0.964738 0.0572946C0.61516 -0.0945548 0.208893 0.0658556 0.0572632 0.415323C-0.0945313 0.764901 0.0658792 1.17122 0.415292 1.32285L3.44339 2.63725L6.78144 18.8408C6.91293 19.4789 7.48126 19.9421 8.13283 19.9421H24.6604C25.0415 19.9421 25.3503 19.6332 25.3503 19.2522C25.3503 18.8712 25.0415 18.5623 24.6604 18.5623H8.13289L7.72684 16.5913H24.7882C25.4397 16.5913 26.0081 16.1281 26.1395 15.49L28.0692 6.12359C28.1532 5.71573 28.0505 5.29651 27.7874 4.97366ZM24.7882 15.2117H7.44262L5.51303 5.8453L26.7178 5.84535L24.7882 15.2117Z" fill="white"/>
</svg>
