<svg width="813" height="571" viewBox="0 0 813 571" fill="none" xmlns="http://www.w3.org/2000/svg">
<g clip-path="url(#clip0)">
<path d="M566.5 45L685.5 74L813 96.5V146L600 255.5L515.5 188.5L518 88L566.5 45Z" stroke="#FF00A8"/>
<path d="M246.5 45L127.5 74L0 96.5V146L213 255.5L297.5 188.5L295 88L246.5 45Z" stroke="#FF0000"/>
<path d="M216.5 333.5L213 255.5L297.5 188.5L406.5 208.5V398.5L259.5 399.5L216.5 333.5Z" stroke="#0029FF"/>
<path d="M216.5 333.5L213 255.5L297.5 188.5L406.5 208.5V398.5L259.5 399.5L216.5 333.5Z" stroke="#0029FF"/>
<path d="M596.5 333.5L600 255.5L515.5 188.5L406.5 208.5V398.5L553.5 399.5L596.5 333.5Z" stroke="#00FF47"/>
<path d="M406.5 122L295 88L297.5 188.5L406.5 208.5L515.5 188.5L518 88L406.5 122Z" stroke="#FA00FF"/>
<path d="M0.5 96.5V0.5L813 0V96.5L685.5 74L566.5 45L406.5 38L246.5 45L127.5 74L0.5 96.5Z" stroke="black"/>
</g>
<defs>
<clipPath id="clip0">
<rect width="813" height="571" fill="white"/>
</clipPath>
</defs>
</svg>
