<svg width="482" height="390" viewBox="0 0 482 390" fill="none" xmlns="http://www.w3.org/2000/svg">
<path d="M156.5 146V110L112.5 67.5H44.5L29.5 120L41.5 159.5L71 182L116 188L156.5 146Z" stroke="#FF0000"/>
<path d="M57.5 25L44.5 67.5H112.5L136 57L141 32L117.5 14L84 15L57.5 25Z" stroke="#E00000"/>
<path d="M325.5 146L327 114L370 70.5L437.5 67.5L457.5 118.5L448 163L413 191L366 188L325.5 146Z" stroke="#D2A4A4"/>
<path d="M424.5 25L437.5 67.5L370 70.5L346 57L341 32L364.5 14L398 15L424.5 25Z" stroke="#E00000"/>
<path d="M192.5 150.5L156.5 146L116 188V222L138 249L177.5 253L207 238.5L218.5 213L215.5 176.5L192.5 150.5Z" stroke="#DB00FF"/>
<path d="M289.5 150.5L325.5 146L366 188V222L344 249L304.5 253L275 238.5L263.5 213L266.5 176.5L289.5 150.5Z" stroke="#DBFF00"/>
<path d="M163 57.5L136 57L112.5 67.5L156.5 110L163 57.5Z" stroke="#15A4C3"/>
<path d="M319 57.5L346 57L370 70.5L327 114L319 57.5Z" stroke="#15A4C3"/>
<path d="M241 164L215.5 176.5L218.5 213L211.5 228.5L241 235L270.5 228.5L263.5 213L266.5 176.5L241 164Z" stroke="#54FF04"/>
<path d="M167 52L163 57.5L156.5 110V146L192.5 150.5L215.5 176.5L241 164L266.5 176.5L289.5 150.5L325.5 146L327 114L319 57.5L315 52H167Z" stroke="#00FF85"/>
</svg>
