<svg width="482" height="390" viewBox="0 0 482 390" fill="none" xmlns="http://www.w3.org/2000/svg">
<path d="M155 143V111.5L133.5 94.5L112.5 67.5H44.5L24.5 118.5L41.5 159.5L71.5 185.5L116 188L155 143Z" stroke="#FF0000"/>
<path d="M57.5 25L44.5 67.5H112.5L136 57L141 32L117.5 14L84 15L57.5 25Z" stroke="#F98FB5"/>
<path d="M325.5 146L327 114L370 70.5L437.5 67.5L457.5 118.5L448 163L413 191L366 188L325.5 146Z" stroke="#D2A4A4"/>
<path d="M424.5 25L437.5 67.5L370 70.5L346 57L341 32L364.5 14L398 15L424.5 25Z" stroke="#F98FB5"/>
<path d="M192.5 150.5L155 143L116 188V222L138 249L177.5 253L207 238.5L218.5 213L215.5 176.5L192.5 150.5Z" stroke="#DB00FF"/>
<path d="M289.5 150.5L325.5 146L366 188V222L344 249L304.5 253L275 238.5L263.5 213L266.5 176.5L289.5 150.5Z" stroke="#DBFF00"/>
<path d="M163 57.5L136 57L112.5 67.5L133.5 94.5L155 111.5L163 57.5Z" stroke="#15A4C4"/>
<path d="M319 57.5L346 57L370 70.5L327 114L319 57.5Z" stroke="#15A4C4"/>
<path d="M241 164L215.5 176.5L218.5 213L211.5 228.5L241 235L270.5 228.5L263.5 213L266.5 176.5L241 164Z" stroke="#54FF04"/>
<path d="M167 52L163 57.5L155 111.5V143L192.5 150.5L215.5 176.5L241 164L266.5 176.5L289.5 150.5L325.5 146L327 114L319 57.5L315 52H167Z" stroke="#00FF85"/>
<path d="M479 223L457.5 118.5L448 163L413 191L366 188V222L344 249L366.5 300.5L401 307.5L433 305L455.5 297L479 275.5V223Z" stroke="black"/>
<path d="M479 320.5V275.5L455.5 297L433 305L401 307.5L366.5 300.5L399 344H439.5L463.5 337.5L479 320.5Z" stroke="white"/>
<path d="M3 223L24.5 118.5L41.5 159.5L71.5 185.5L116 188V222L138 249L115.5 300.5L81 307.5L49 305L26.5 297L0 273L3 223Z" stroke="black"/>
<path d="M0 319.5V273L26.5 297L49 305L81 307.5L115.5 300.5L83 344H42.5L18.5 337.5L0 319.5Z" stroke="white"/>
</svg>
