<svg width="482" height="390" viewBox="0 0 482 390" fill="none" xmlns="http://www.w3.org/2000/svg">
<path d="M148.211 97.1429L155 53.1905L127.229 21L72.3029 23.4762L47 58.1429L79.7086 113.238L114.269 125L148.211 97.1429Z" stroke="#F98FB5"/>
<path d="M333.789 97.1429L327 53.1905L354.771 21L409.697 23.4762L435 58.1429L402.291 113.238L367.731 125L333.789 97.1429Z" stroke="#F98FB5"/>
<path d="M16 170.5L47 58L79.5 113L114 125L148 97.5L155 53.5H327L334 97.5L368 125L402.5 113L435 58L466 170.5L482.5 309.5L474 338L439.5 356H394.5L370.5 333.5L337.5 243L241 237.5L144.5 243L111.5 333.5L87.5 356H42.5L8 338L-0.5 309.5L16 170.5Z" stroke="white"/>
</svg>
