<svg width="482" height="390" viewBox="0 0 482 390" fill="none" xmlns="http://www.w3.org/2000/svg">
<path d="M332 61V51.5L356 43.5L381 49H418.5L434 68.5L401 79.5L384 92.5L361 88.5L344.5 80.5L332 61Z" stroke="#FF0000"/>
<path d="M482 390H428.049L416.5 336L369.5 171L361 88.5L384 92.5L401 79.5L434 68.5L482 219.247V390Z" stroke="#00FFF0"/>
<path d="M317 177.5L323.5 61L241 60.5L158.5 61L165 177.5L241 180L317 177.5Z" stroke="#FF067E"/>
<path d="M150 61V51.5L126 43.5L101 49H63.5L48 68.5L81 79.5L98 92.5L121 88.5L137.5 80.5L150 61Z" stroke="#FF0000"/>
<path d="M2.28882e-05 390H53.9508L65.5 336L112.5 171L121 88.5L98 92.5L81 79.5L48 68.5L2.28882e-05 219.247V390Z" stroke="#00FFF0"/>
<path d="M86.8548 0L63.5 49H101L126 43.5L150 51.5V61L241 60.5L332 61V51.5L356 43.5L381 49H418.5L395.145 0H86.8548Z" stroke="#001AFF"/>
<path d="M150 61H158.5L165 177.5L241 180L317 177.5L323.5 61H332L344.5 80.5L361 88.5L369.5 171L416.5 336L428 390L339 283.5L241 280L143 283.5L54 390L65.5 336L112.5 171L121 88.5L137.5 80.5L150 61Z" stroke="white"/>
</svg>
