<svg width="813" height="571" viewBox="0 0 813 571" fill="none" xmlns="http://www.w3.org/2000/svg">
<path d="M566.5 45L709.5 79.5L757.5 189L600 255.5L515.5 188.5L518 88L566.5 45Z" stroke="#FF00A8"/>
<path d="M246.5 45L103.5 79.5L55.5 189L213 255.5L297.5 188.5L295 88L246.5 45Z" stroke="#FF0000"/>
<path d="M216.5 333.5L213 255.5L297.5 188.5L406.5 208.5V398.5L259.5 399.5L216.5 333.5Z" stroke="#0029FF"/>
<path d="M596.5 333.5L600 255.5L515.5 188.5L406.5 208.5V398.5L553.5 399.5L596.5 333.5Z" stroke="#00FF47"/>
<path d="M406.5 122L295 88L297.5 188.5L406.5 208.5L515.5 188.5L518 88L406.5 122Z" stroke="#FA00FF"/>
<path d="M566.5 45L406.5 38L246.5 45L103.5 79.5L113 0.5H700L709.5 79.5L566.5 45Z" stroke="black"/>
<path d="M246.5 45L295 88L406.5 122L518 88L566.5 45L406.5 38L246.5 45Z" stroke="#1A15FF"/>
<path d="M812 351.5L757.5 189L600 255.5L596.5 333.5L553.5 399.5L689.5 570.5H812V351.5Z" stroke="#FAFF14"/>
<path d="M1 351.5L55.5 189L213 255.5L216.5 333.5L259.5 399.5L123.5 570.5H1V351.5Z" stroke="#FAFF14"/>
</svg>
