<svg width="482" height="390" viewBox="0 0 482 390" fill="none" xmlns="http://www.w3.org/2000/svg">
<path d="M326 52.5L425 73.5L449.096 129.089L399.5 150.5L370.5 177.5L350.5 181L326 153L300.5 135.5L307 75L326 52.5Z" stroke="#FF00A8"/>
<path d="M353.645 227.785L350.5 181L326 153L300.5 135.5L241 142.408V272.18L328.151 272.863L353.645 227.785Z" stroke="#00FF47"/>
<path d="M481.407 240.079L449.096 129.089L399.5 150.5L370.5 177.5L350.5 181L353.645 227.785L328.151 272.863L408.781 389.658H481.407V240.079Z" stroke="#FAFF14"/>
<path d="M128.36 227.785L131.505 181L156.005 153L181.505 135.5L241.005 142.408V272.18L153.853 272.863L128.36 227.785Z" stroke="#0029FF"/>
<path d="M307 75L282.5 99.5L241 103L199.5 99.5L175 75L181.5 135.5L241 142.408L300.5 135.5L307 75Z" stroke="#FA00FF"/>
<path d="M326 52.5L241 53.5L156 52.5L57 73.5L66.9939 0H415.006L425 73.5L326 52.5Z" stroke="black"/>
<path d="M326 52.5L241 53.5L156 52.5L175 75L199.5 99.5L241 103L282.5 99.5L307 75L326 52.5Z" stroke="#1A15FF"/>
<path d="M3.05176e-05 239.989L32.3112 129L81.9072 150.411L110.907 177.411L130.907 180.911L127.763 227.695L153.256 272.774L72.6261 389.569H3.05176e-05V239.989Z" stroke="#FAFF14"/>
<path d="M155.5 52.5L56.5 73.5L32.4041 129.089L82 150.5L111 177.5L131 181L155.5 153L181 135.5L174.5 75L155.5 52.5Z" stroke="#FF0000"/>
</svg>
