<svg width="813" height="571" viewBox="0 0 813 571" fill="none" xmlns="http://www.w3.org/2000/svg">
<path d="M147.5 0.5L117 38.5H153L212.5 42.5L259 58L407 60.5L555 58L601.5 42.5L661 38.5H697L666.5 0.5H147.5Z" stroke="#001AFF"/>
<path d="M554 58L406 60.5595L258 58L260 271.976L406 273L552 271.976L554 58Z" stroke="#FF067E"/>
<path d="M225 93.5L259 58L212.5 42.5L153 38.5H117L82.5 101L123.5 118.5L160.5 115.5L225 93.5Z" stroke="#FF0000"/>
<path d="M0 571H91L146 405L184.5 225L192.5 104.5L160.5 115.5L123.5 118.5L81.5 100.5L0 321V571Z" stroke="#00FFF0"/>
<path d="M589 93.5L555 58L601.5 42.5L661 38.5H697L731.5 101L690.5 118.5L653.5 115.5L589 93.5Z" stroke="#FF0000"/>
<path d="M813 571H722L667 405L628.5 225L620.5 104.5L652.5 115.5L689.5 118.5L731.5 100.5L813 321V571Z" stroke="#00FFF0"/>
<path d="M241 415L91 571L146 405L184.5 225L192.5 104.5L225 93.5L258 59L260 272L406 273L552 272L554 59L587 93.5L619.5 104.5L627.5 225L666 405L721 571L571 415L406 409.5L241 415Z" stroke="white"/>
</svg>
