<svg width="813" height="571" viewBox="0 0 813 571" fill="none" xmlns="http://www.w3.org/2000/svg">
<path d="M734 0.5L661 38.5L601.5 42.5L555 58L407 60.5L259 58L212.5 42.5L153 38.5L80 0.5H734Z" stroke="#001AFF"/>
<path d="M554 58L406 60.5595L258 58L260 271.976L406 273L552 271.976L554 58Z" stroke="#FF067E"/>
<path d="M554 58L406 60.5595L258 58L260 271.976L406 273L552 271.976L554 58Z" stroke="#FF067E"/>
<path d="M588 93.5L554 58L600.5 42.5L660 38.5L733 0.5L813 0V61L730.5 101L689.5 118.5L652.5 115.5L588 93.5Z" stroke="#FF0000"/>
<path d="M225 93.5L259 58L212.5 42.5L153 38.5L80 0.5L0 0V61L82.5 101L123.5 118.5L160.5 115.5L225 93.5Z" stroke="#FF0000"/>
<path d="M720 571.5L588 93.5L652.5 115.5L689.5 118.5L731.5 100.5L813 61V571L720 571.5Z" stroke="#00FFF0"/>
<path d="M93 571.5L225 93.5L160.5 115.5L123.5 118.5L81.5 100.5L0 61V571L93 571.5Z" stroke="#00FFF0"/>
</svg>
